<?xml version="1.0" encoding="utf-8"?>
<!-- Generator: Adobe Illustrator 28.0.0, SVG Export Plug-In . SVG Version: 6.00 Build 0)  -->
<svg version="1.1" id="Layer_1" xmlns="http://www.w3.org/2000/svg" xmlns:xlink="http://www.w3.org/1999/xlink" x="0px" y="0px"
	 viewBox="0 0 737.4 674" style="enable-background:new 0 0 737.4 674;" xml:space="preserve">
<style type="text/css">
	.st0{fill:#FEDB46;}
	.st1{fill:#FFFFFF;stroke:#000000;stroke-miterlimit:10;}
	.st2{fill:#E6E7E8;}
	.st3{fill:#D1D3D4;stroke:#808285;stroke-miterlimit:10;}
	.st4{fill:none;stroke:#000000;stroke-miterlimit:10;}
	.st5{fill:#FEDB46;stroke:#000000;stroke-miterlimit:10;}
	.st6{fill:#BCBEC0;stroke:#000000;stroke-miterlimit:10;}
	.st7{stroke:#000000;stroke-miterlimit:10;}
	.st8{fill:#848484;stroke:#000000;stroke-miterlimit:10;}
	.st9{fill:#6D6E71;stroke:#000000;stroke-miterlimit:10;}
	.st10{fill:#6D6E71;}
	.st11{fill:#939393;stroke:#000000;stroke-miterlimit:10;}
	.st12{fill:none;stroke:#43494E;stroke-width:5.000000e-02;stroke-miterlimit:10;}
	.st13{fill:#E0E0E0;}
	.st14{fill:#231F20;}
	.st15{fill:none;stroke:#FFFFFF;stroke-miterlimit:10;}
	.st16{fill:#E6E7E8;stroke:#000000;stroke-miterlimit:10;}
	.st17{fill:#D1D3D4;stroke:#000000;stroke-miterlimit:10;}
	.st18{fill:#FEDA46;stroke:#000000;stroke-miterlimit:10;}
	.st19{fill:none;stroke:#FEDB46;stroke-width:3;stroke-linecap:round;stroke-linejoin:round;stroke-miterlimit:10;}
</style>
<g>
	<g>
		<path class="st0" d="M42.5,614c-1.9,12.4-3.7,24.9-5.6,37.3c-0.3,1.8-0.5,3.6-0.8,5.4c-0.2,1.1,0.8,1.9,1.8,1.4
			c22-10.6,33.6-33.7,39.7-56.3c7.8-29.4,9.4-60.5,4.4-90.5c-2.6-15.2-7.1-29.8-12.5-44.1c-5.3-14.1-11.1-28.2-14.4-43
			c-3.1-13.9-4-28.5-0.6-42.4c2.8-11.4,10.1-30.9,25.4-26.1c6.2,2,10.4,7.1,11.5,13.4c1.4,7.4-0.8,15.2-3,22.2
			c-4.1,12.9-10.2,25.4-19.1,35.7c-8.5,10-21.6,21.1-35.7,19.4c-12.2-1.5-18.9-13.2-21.9-24c-3.8-13.9-4.7-28.9-3.8-43.2
			c0.9-15,3.9-29.8,8.7-44c7.3-21.8,17.7-43,32.9-60.4c7.5-8.6,15.8-16.4,24.2-24.1c9.5-8.7,19.4-16.6,30.7-22.9
			c21.8-11.9,47.9-18.7,72.8-14.2c5.8,1,11.4,2.7,16.8,5c1.5,0.6,2.7-1.5,1.3-2.2c-23.4-10.1-50.2-7.9-73.7,0.8
			c-12.5,4.6-24.3,11-34.9,19C76.4,244,67,253.1,57.9,262.2c-7.6,7.5-14.7,15.5-20.7,24.3c-6.6,9.5-11.8,19.9-16.3,30.5
			c-12,28.2-18.5,58.8-14.7,89.5c1.5,12,3.9,25.3,12.3,34.5c3.7,4.1,8.7,6.9,14.2,7.7c6.8,1,13.7-1.1,19.7-4.3
			c12.2-6.6,21.8-18,28.6-29.9c3.4-6,6.2-12.4,8.5-18.9c2.4-6.8,4.6-14,4.7-21.3c0.1-6.3-1.7-12.7-6.5-17c-4.1-3.6-9.8-5.6-15.3-4.7
			c-6.4,1.1-10.9,6.2-13.9,11.6c-3.5,6.4-6,13.3-7.3,20.5c-5.9,31,7.5,60.1,17.8,88.5c5.5,15.2,9.7,30.8,11.7,46.9
			c2,16,2.1,32.2,0.5,48.3c-1.6,14.9-4.5,30-9.6,44.2c-4.3,11.9-10.4,23.5-19.5,32.5c-4.5,4.5-9.7,8.1-15.4,10.9
			c0.6,0.5,1.2,0.9,1.8,1.4c1.9-12.4,3.7-24.9,5.6-37.3c0.3-1.8,0.5-3.6,0.8-5.4C45.1,613.1,42.7,612.4,42.5,614L42.5,614z"/>
	</g>
</g>
<g>
	<rect x="294.1" y="65.5" class="st1" width="98.2" height="119.3"/>
	<g>
		<rect x="304.6" y="78.7" class="st2" width="73.9" height="48.6"/>
		<circle class="st3" cx="319.4" cy="92.4" r="6.1"/>
		<path class="st3" d="M305,127.1l18.3-19.7l12.8,8.4l18.4-25.5l23.7,37C378.2,127.3,305.1,127.1,305,127.1z"/>
	</g>
	<line class="st4" x1="308.7" y1="142.6" x2="377" y2="142.6"/>
	<line class="st4" x1="308.7" y1="153" x2="377" y2="153"/>
	<line class="st4" x1="308.7" y1="163.5" x2="377" y2="163.5"/>
</g>
<g>
	<rect x="259" y="109.8" class="st1" width="67.4" height="81.9"/>
	<g>
		<rect x="266.1" y="118.8" class="st2" width="50.7" height="33.3"/>
		<circle class="st3" cx="276.3" cy="128.2" r="4.2"/>
		<path class="st3" d="M266.4,152l12.5-13.5l8.8,5.8l12.7-17.5l16.2,25.4C316.6,152.2,266.5,152,266.4,152z"/>
	</g>
	<line class="st4" x1="268.9" y1="162.7" x2="315.9" y2="162.7"/>
	<line class="st4" x1="268.9" y1="169.8" x2="315.9" y2="169.8"/>
	<line class="st4" x1="268.9" y1="177" x2="315.9" y2="177"/>
</g>
<g>
	<polygon class="st5" points="304.2,566.4 303.7,583.7 342.9,586.1 343.3,573.4 	"/>
	<g>
		<g>
			<g>
				<path class="st6" d="M342.9,585.6l0,30.5l-84.4-1.7c0.6-7.6,44.6-22,44.6-22l0.6-9.2L342.9,585.6z"/>
			</g>
		</g>
	</g>
	<path class="st7" d="M262.7,610.9l79.4,0.2l0.9,5l-81-1.4c-1.6,0-2.4-1.9-1.5-3.1L262.7,610.9z"/>
	<path class="st4" d="M292,596c0,0,3.7-12,9.8,4.7"/>
	<path class="st4" d="M282.5,599.8c0,0,3.5-11.5,9.3,4.6"/>
</g>
<path class="st1" d="M474.2,39l-1.7,0c-17,0.2-31.1,13.4-32.3,30.4c-1.1,15.8-2.2,33.3-2,41.7c0.4,17.5,17.9,20.1,17.9,20.1
	l-0.1,7.2c-0.2,11.8,9.2,31.6,21,31.8l0,0c11.7,0.2,21.3-19,21.6-30.7l1.9-65.3C501.9,56,492.5,39.9,474.2,39z"/>
<path class="st4" d="M456,131.3c0,0,12.8,2.3,22.9-6.9"/>
<path class="st7" d="M440.2,62.8c3.9,2.4,9,0,10.9-4.5c2.9,2.9,8,1.2,9.2-3.1c2.1,2.6,5.7,2.5,8.5,1.1c2.8-1.4,5.1-3.8,7.9-5.1
	c2.8-1.3,5.9-1.4,8.8-0.5c-1.8,3.9,1.1,9.2,3.9,14.8c1.6,3.3,3.7,6.7,5.1,10.1c1.4,3.4,4.9,6,7.7,4.6c2.4-1.1,3.5-4.3,4.3-7.2
	c1.6-5.3,3.2-11.2,1.5-16.6c-1.2-3.6-3.5-8.6-6.2-10.8c-4.2-3.5-5.4-2.6-5.4-2.6s-0.6-6-4.6-8.8c-5.2-3.7-9.5-0.4-9.5-0.4
	s-3.1-7.2-11.3-6.6c-6.3,0.4-7.7,4.3-11.8,5.1c-2.5,0.5-5.3-0.7-7.7,0.6c-3.9,2.2-3.6,9.4-6.8,12.8c-1.8,1.9-4.4,2.3-6.2,4.2
	C435.2,53.1,436.4,60.4,440.2,62.8z"/>
<path class="st4" d="M468.8,94.3c-0.2,2.4-3.6,4.2-7.5,3.8l0,0c-3.9-0.3-7-2.6-6.8-5"/>
<circle class="st7" cx="479.5" cy="85.6" r="1.5"/>
<circle class="st7" cx="449.1" cy="83.2" r="1.5"/>
<g>
	<g>
		<g>
			<g>
				<g>
					<g>
						<g>
							<g>
								<g>
									<g>
										<g>
											<g>
												<g>
													<g>
														<path class="st1" d="M500.5,80.7c0.3-0.1,12.4-3.7,12,8.7c-0.4,12.3-12.7,9.4-12.7,9.1
															C499.8,98.1,500.5,80.7,500.5,80.7z"/>
													</g>
												</g>
											</g>
										</g>
									</g>
								</g>
							</g>
						</g>
					</g>
				</g>
			</g>
		</g>
	</g>
	<path class="st4" d="M503.1,84c0,0,6.1-1.4,5.7,5.3s-5.9,6.4-5.9,6.4"/>
	<path class="st4" d="M504,91.9c0,0,2.5-0.7,2.7,2.4"/>
</g>
<g>
	<g>
		<g>
			<g>
				<g>
					<g>
						<g>
							<g>
								<g>
									<g>
										<g>
											<g>
												<g>
													<g>
														<path class="st1" d="M439.5,77.3c-0.2-0.1-10.2-4.2-10.9,6.3c-0.8,10.5,9.9,9.1,10,8.8
															C438.6,92,439.5,77.3,439.5,77.3z"/>
													</g>
												</g>
											</g>
										</g>
									</g>
								</g>
							</g>
						</g>
					</g>
				</g>
			</g>
		</g>
	</g>
	<path class="st4" d="M437,79.8c0,0-5-1.7-5.3,4c-0.3,5.7,4.4,5.9,4.4,5.9"/>
	<path class="st4" d="M435.6,86.4c0,0-2-0.8-2.5,1.8"/>
</g>
<g>
	<path class="st8" d="M448.2,406.6h133.9v-220c0-10.2-8.3-18.6-18.6-18.6H448.2V406.6z"/>
</g>
<g>
	<g>
		<g>
			<g>
				<path class="st9" d="M425.6,329.1c0,0-24.4,3.7-49.5,8.3c-30.1,5.6-62.2,12.6-66.5,16c-7.9,6.2-9.6,23.1-12.9,43.9
					c-3.4,20.8-4.1,175.7-4.1,175.7l55.9,1.6l11.1-162.5c0,0,81.6,0,98.4-0.1c13.6-0.1,50,1.4,63.8-5.9
					c21.8-11.5,17.7-55.2,17.7-55.2c-5.4-4.7-98.5-32.3-98.5-32.3L425.6,329.1z"/>
			</g>
		</g>
	</g>
	<g>
		<g>
			<path class="st10" d="M328,297.4c0,0-19.3-1.4-23.4,15.1c-5.7,22.9-31,159.4-31,159.4l56.9,11l30-133.3l53.9-8.8l22.2-8.9
				c0,0-12.6-13.4-38.6-21.7C380.4,304.7,328,297.4,328,297.4z"/>
		</g>
	</g>
</g>
<g>
	<g>
		<g>
			<path d="M389.5,251.3c0,0,17.3-51.3,21.1-67.9c4.6-20.7,15.2-27.7,15.2-27.7l-0.5,125.4c0,0-10,5.5-21.3,5.2l-86.6,0.9l-8.5-28.5
				"/>
		</g>
	</g>
	<g>
		<g>
			<path d="M425.8,155.7l25.5-10.2l4.3-8.5l4,17.6l39.7-24.6l4.6,10.2c0,0,39.5,16.6,44.6,21.3c6.3,5.7-10.9,101.5-10.9,101.5
				s6.2,76.8,4,92.1c0,0-27.7-8-50.6-11.1c-23-3.1-50.7-12-50.7-12l-25.1-15.5L425.8,155.7z"/>
		</g>
	</g>
	<g>
		<g>
			<g>
				<path d="M548.9,161.4c0,0,8.9,5.6,13.2,22.8c4.4,17.2,18.1,88.6,14.2,99.1c-3.9,10.5-90.3,24.1-90.3,24.1l-9.8-31.2l59.9-19.9
					c0,0-8.8-34.3-9.3-48.2C526.4,194.3,548.9,161.4,548.9,161.4z"/>
			</g>
		</g>
	</g>
</g>
<g>
	<polygon class="st6" points="484.5,500.1 466.8,500.1 466.8,493.8 459,493.8 459,515.3 466.8,515.3 466.8,509 484.5,509 	"/>
	<path class="st6" d="M488.7,447.1c36-1.3,74.4-18.6,74.4-18.6l-159.8-0.1c0,0,33.5,15.3,69.5,18.3v143H411v9.8h141v-9.8h-63.3
		V447.1z"/>
	<g>
		<g>
			<path d="M427.5,603.6c0,5.9-4.8,10.8-10.8,10.8c-5.9,0-10.8-4.8-10.8-10.8c0-5.9,4.8-10.8,10.8-10.8
				C422.7,592.9,427.5,597.7,427.5,603.6z"/>
		</g>
	</g>
	<g>
		<g>
			<path d="M490.2,603.6c0,5.9-4.8,10.8-10.8,10.8s-10.8-4.8-10.8-10.8c0-5.9,4.8-10.8,10.8-10.8S490.2,597.7,490.2,603.6z"/>
		</g>
	</g>
	<g>
		<g>
			<path d="M562.7,603.6c0,5.9-4.8,10.8-10.8,10.8c-5.9,0-10.8-4.8-10.8-10.8c0-5.9,4.8-10.8,10.8-10.8
				C557.9,592.9,562.7,597.7,562.7,603.6z"/>
		</g>
	</g>
	<g>
		<g>
			<g>
				<path class="st11" d="M565.6,428.7H377.5c-7,0-12.7-3.9-12.7-11.9l0,0c0-6.6,5.7-11.9,12.7-11.9h204.6v8.4
					C582.1,421.7,574.7,428.7,565.6,428.7z"/>
			</g>
		</g>
	</g>
	<g>
		<g>
			<g>
				<path class="st12" d="M482,406"/>
			</g>
		</g>
	</g>
</g>
<g>
	<g>
		<g>
			<g>
				<g>
					<g>
						<path class="st1" d="M460.4,265.2l11.4,11.5l3.9-0.2l7.7,24.5l-13.7,0.5c0,0-7.7,1.9-11.3-1.5c-4.9-4.7-12.3-12.9-12.3-12.9
							l-13.6,1.4c0,0,0.2,4-1.8,4.6c-0.3,0.1-0.6,0.1-0.9,0.2c-1.4,0.1-2.7-0.7-3.3-1.9l0,0c0,0-2.5,1.1-3.8,0.9c-1.3-0.2-2-5-2-5
							s-2.7,0.6-3.5-2c-0.5-1.7,2.8-9,2.8-9l6.4-10.2c1.7-2.7,4.5-4.4,7.6-4.8l15.2-1.7c0,0,3.5,0.5,4.4,2L460.4,265.2z"/>
					</g>
				</g>
			</g>
		</g>
	</g>
	<path class="st4" d="M458.8,276.7c1.1-0.1-15.1-2.6-26.1,9.6"/>
	<path class="st4" d="M453.9,268c0,0-8.6,2.9-17.5,5.4c-4.2,1.2-5.5,6-8.8,11.1"/>
	<path class="st4" d="M445.4,264.6c0,0-2.9,1.5-12.5,3.4c-3.9,0.8-6.3,8.8-10.6,16.3"/>
</g>
<g>
	<g>
		<g>
			<g>
				
					<rect x="141.9" y="295.3" transform="matrix(-1 -4.489887e-11 4.489887e-11 -1 860.001 624.508)" class="st6" width="576.3" height="34"/>
			</g>
		</g>
	</g>
</g>
<g>
	
		<rect x="678" y="329" transform="matrix(-1 -4.344093e-11 4.344093e-11 -1 1382.7643 941.499)" class="st6" width="26.8" height="283.5"/>
</g>
<g>
	
		<rect x="153.9" y="329" transform="matrix(-1 -4.344093e-11 4.344093e-11 -1 334.644 941.499)" class="st6" width="26.8" height="283.5"/>
</g>
<g>
	<g>
		<g>
			<path class="st13" d="M441.7,294.4c3,0,5.3-2.1,5.2-5.4c-0.2-3-2.4-5.4-5.2-5.4l-96.2,0.2l-30-104.4c-0.8-2.7-3.3-4.6-6.1-4.6
				l-122.8,0.6c-5.9-0.1-6.6,2.8-4.1,10.9l28.1,108.2C210.5,294.4,441.6,294.4,441.7,294.4z"/>
		</g>
	</g>
</g>
<g>
	<path class="st14" d="M257.2,213.1c-11,1.5-18.3,13.7-16.4,27c1.9,13.4,12.4,23,23.3,21.6c10.9-1.5,18.3-13.6,16.4-27
		C278.5,221.3,268.1,211.6,257.2,213.1L257.2,213.1z M264,260.1c-10.2,1.5-20.1-7.4-22-19.9c-1.9-12.5,4.9-24,15.1-25.6
		c10.2-1.5,20.1,7.4,22,20l0,0C281.1,247.2,274.3,258.6,264,260.1z"/>
	<path class="st14" d="M257.4,216.3c-9.5,1.4-15.8,12-14,23.7s10.9,19.9,20.4,18.5c9.5-1.4,15.8-12,14.1-23.6l0,0
		C276.1,223.2,267,214.9,257.4,216.3z M258.5,245.2l-1.9,0.3l-1.5-10l1.9-0.3L258.5,245.2z M261.7,238.5l-1.9,0.3l-2-13.1l1.9-0.3
		L261.7,238.5z M266.6,243.9l-1.9,0.3l-1.9-12.6l1.9-0.3L266.6,243.9z"/>
</g>
<g>
	<polygon class="st5" points="282.1,473.6 279.4,484.3 318.1,494.3 321.9,481.2 	"/>
	<g>
		<g>
			<g>
				<path class="st6" d="M319,495.3l-8.9,27.9l-80.5-20.5c2.3-7.2,47.6-11.1,47.6-11.1l2.1-7.2L319,495.3z"/>
			</g>
		</g>
	</g>
	<path class="st7" d="M234.3,500.4l75.2,17.8c0.4,0.1,0.7,0.5,0.7,0.9l-0.2,3.1c0,0.6-0.6,1-1.1,0.8l-76.3-19.2
		c-1.5-0.4-1.9-2.3-0.7-3.3l2.1-0.2C234.2,500.4,234.2,500.4,234.3,500.4z"/>
	<path class="st4" d="M265.8,492.6c0,0,6.2-10.7,8.3,6.7"/>
	<path class="st4" d="M255.9,494.1c0,0,5.9-10.3,7.9,6.5"/>
</g>
<line class="st15" x1="1216.9" y1="593.9" x2="1213.9" y2="598.4"/>
<line class="st15" x1="1224" y1="597.7" x2="1221.7" y2="601.2"/>
<path class="st0" d="M604.5,233.3c0-0.1,0-0.2,0.1-0.3c0.2-0.5,0.9-0.7,1.4-0.5l9.3,4.3c0.5,0.2,0.7,0.8,0.5,1.4
	c-0.2,0.5-0.9,0.7-1.4,0.5l-9.4-4.3C604.6,234.2,604.4,233.7,604.5,233.3z M616.9,215.4c0-0.2,0.1-0.4,0.3-0.6
	c0.4-0.4,1.1-0.4,1.5,0l7,7.4c0.4,0.4,0.4,1.1-0.1,1.5c-0.4,0.4-1.1,0.4-1.5,0l-7-7.4C617,216,616.9,215.7,616.9,215.4z
	 M635.5,203.6c0.1-0.3,0.3-0.7,0.7-0.8c0.5-0.2,1.1,0.1,1.3,0.6l3.7,9.5c0.2,0.5-0.1,1.1-0.6,1.3c-0.5,0.2-1.1-0.1-1.3-0.6l-3.7-9.5
	C635.5,204,635.5,203.8,635.5,203.6z M658.1,199.6c0.1-0.5,0.5-0.9,1.1-0.9c0.6,0,1,0.5,1,1.1l-0.4,10.2c0,0.6-0.5,1-1.1,1
	c-0.6,0-1-0.5-1-1.1l0.4-10.2C658.1,199.7,658.1,199.6,658.1,199.6z M675.9,214.5c0-0.1,0-0.2,0.1-0.3l4.4-9.3
	c0.2-0.5,0.9-0.7,1.4-0.5c0.5,0.2,0.7,0.8,0.5,1.4l-4.4,9.3c-0.2,0.5-0.9,0.7-1.4,0.5C676.1,215.5,675.8,215,675.9,214.5z
	 M690.5,224.7c0-0.2,0.1-0.4,0.3-0.6l7.6-7c0.4-0.4,1.1-0.4,1.5,0c0.4,0.4,0.4,1.1-0.1,1.5l-7.6,7c-0.4,0.4-1.1,0.4-1.5,0
	C690.6,225.4,690.5,225,690.5,224.7z M687.5,289.9c0-0.2,0.1-0.4,0.3-0.6c0.4-0.4,1.1-0.4,1.5,0l7,7.4c0.4,0.4,0.4,1.1-0.1,1.5
	c-0.4,0.4-1.1,0.4-1.5,0l-7-7.4C687.6,290.5,687.5,290.2,687.5,289.9z M699.1,240c0.1-0.3,0.3-0.7,0.7-0.8l9.6-3.7
	c0.5-0.2,1.1,0.1,1.3,0.6c0.2,0.5-0.1,1.1-0.6,1.3l-9.6,3.7c-0.5,0.2-1.1-0.1-1.3-0.6C699.1,240.3,699.1,240.1,699.1,240z
	 M698.2,275.9c0-0.1,0-0.2,0.1-0.3c0.2-0.5,0.9-0.7,1.4-0.5l9.4,4.3c0.5,0.2,0.7,0.8,0.5,1.4c-0.2,0.5-0.9,0.7-1.4,0.5l-9.4-4.3
	C698.4,276.8,698.1,276.4,698.2,275.9z M702.9,258.1c0.1-0.5,0.5-0.9,1.1-0.9l10.3,0.3c0.6,0,1,0.5,1,1.1c0,0.6-0.5,1-1.1,1
	l-10.3-0.3c-0.6,0-1-0.5-1-1.1C702.9,258.1,702.9,258.1,702.9,258.1z"/>
<path class="st15" d="M549.4,161c0,0-22.3-4.1-26.3,19.9c-3.5,21.2,12.7,75.5,12.7,75.5l-60.6,21.4"/>
<line class="st15" x1="535.8" y1="256.3" x2="554.8" y2="265.1"/>
<polyline class="st15" points="450.4,145.5 453.2,162.8 460.2,153.6 466.1,166 504.2,140.2 "/>
<line class="st15" x1="459.6" y1="154.5" x2="451.3" y2="260.4"/>
<line class="st15" x1="485.5" y1="274.8" x2="491.7" y2="295.6"/>
<line class="st15" x1="389.5" y1="251.2" x2="407.4" y2="268.7"/>
<line class="st15" x1="428.7" y1="190.6" x2="414" y2="281.6"/>
<polyline class="st4" points="426.1,339.7 360.4,349.3 330.6,482.5 273.6,471.6 "/>
<polyline class="st4" points="353.6,331.5 360.4,349.3 349,343.8 "/>
<g>
	<path class="st16" d="M638.4,289.1c-1.4,0-2.8-0.3-4.1-0.9l-41.1-19.3c-1.7-0.8-2.7-2.5-2.7-4.3c0-1.9,1.1-3.5,2.8-4.3l43.8-18.9
		c1.2-0.5,2.6-0.5,3.9,0.1l43.2,20.3c1.7,0.8,2.7,2.5,2.7,4.3c0,1.9-1.1,3.5-2.8,4.3l0,0l-41.7,17.9
		C641.1,288.9,639.8,289.2,638.4,289.1z M683.9,270L683.9,270L683.9,270z"/>
	<g>
		<path class="st17" d="M638.3,310.7c-0.6,0-1.1-0.2-1.6-0.4l-29-15.7c-1.2-0.6-1.9-1.8-1.8-3.2l0.3-16.1l29,12.9c2,1,4.4,1,6.4,0.1
			l30.3-12.5l-0.6,16.7c0,1.3-0.8,2.5-1.9,3.1l-29.5,14.7C639.4,310.6,638.8,310.7,638.3,310.7z"/>
	</g>
	<g>
		<path class="st18" d="M664.4,351.3c-3.5-0.1-6.3-3-6.3-6.5c0.1-3.5,3-6.3,6.5-6.3c3.5,0.1,6.3,3,6.3,6.5
			C670.8,348.6,667.9,351.4,664.4,351.3z"/>
	</g>
	<g>
		<circle cx="637.9" cy="261.4" r="2"/>
		<path d="M637.8,263.9c-1.4,0-2.5-1.2-2.5-2.5c0-1.4,1.2-2.5,2.5-2.5c1.4,0,2.5,1.2,2.5,2.5C640.4,262.8,639.2,263.9,637.8,263.9z
			 M637.9,259.9c-0.8,0-1.5,0.7-1.5,1.5c0,0.8,0.7,1.5,1.5,1.5s1.5-0.7,1.5-1.5C639.4,260.6,638.8,259.9,637.9,259.9z"/>
	</g>
	<path d="M631.2,286.6l4.7,2.6c1.5,0.8,3.4,0.9,5,0l3.9-2.1C644.7,287.1,638.3,290.7,631.2,286.6z"/>
	<polyline class="st4" points="638.7,262.3 663.1,278.9 664.5,337.6 	"/>
</g>
<line class="st19" x1="174.8" y1="90.7" x2="271.8" y2="90.7"/>
<line class="st19" x1="188.1" y1="110.7" x2="241.2" y2="110.7"/>
<line class="st19" x1="200.3" y1="70.6" x2="273.9" y2="70.6"/>
<line class="st19" x1="142.1" y1="130.8" x2="239.1" y2="130.8"/>
<line class="st19" x1="80.1" y1="647.6" x2="37.3" y2="657.1"/>
</svg>
